<?xml version="1.0"?>
<svg xmlns="http://www.w3.org/2000/svg" height="512px" viewBox="-1 0 511 512" width="512px" class=""><g><path d="m287.5625 258.671875v-2.5625c0-13.757813-5.53125-19.289063-13.894531-22.523437 7.015625-3.101563 11.464843-10.65625 11.464843-21.851563 0-19.015625-12.8125-23.332031-27.242187-23.332031h-24.546875c-3.238281 0-6.339844 1.617187-6.339844 4.722656v89.285156c0 2.425782 2.425782 4.585938 6.339844 4.585938h27.378906c15.105469 0 26.839844-7.417969 26.839844-28.324219zm-46.398438-57.589844h15.78125c8.496094 0 13.890626 3.910157 13.890626 12.945313 0 9.171875-4.449219 13.894531-13.621094 13.894531h-16.050782zm0 73.234375v-35.066406h16.859376c9.574218 0 15.238281 4.316406 15.238281 16.183594v2.160156c0 11.597656-5.664063 16.722656-15.238281 16.722656zm0 0" data-original="#000000" class="active-path" data-old_color="#6f42c1" fill="#6f42c1"/><path d="m356.769531 240.386719c0-55.898438-45.476562-101.375-101.375-101.375-55.898437 0-101.375 45.476562-101.375 101.375 0 55.898437 45.476563 101.375 101.375 101.375 55.898438 0 101.375-45.476563 101.375-101.375zm-187.75 0c0-47.628907 38.75-86.375 86.375-86.375 47.628907 0 86.375 38.746093 86.375 86.375 0 47.625-38.746093 86.375-86.375 86.375-47.625 0-86.375-38.75-86.375-86.375zm0 0" data-original="#000000" class="active-path" data-old_color="#6f42c1" fill="#6f42c1"/><path d="m471.953125 177.472656c.125-2.136718.183594-4.277344.183594-6.398437 0-61.824219-50.296875-112.121094-112.121094-112.121094-6.109375 0-12.222656.496094-18.234375 1.480469-27.023438-37.933594-70.460938-60.433594-117.1875-60.433594-34.710938 0-68.230469 12.535156-94.378906 35.296875-24.585938 21.394531-41.160156 50.441406-47.050782 82.238281-48.203124 12.179688-82.664062 56.050782-82.664062 106.25 0 60.429688 49.160156 109.59375 109.589844 109.59375h18.371094c4.140624 0 7.5-3.359375 7.5-7.5 0-4.144531-3.359376-7.5-7.5-7.5h-18.371094c-52.15625 0-94.589844-42.4375-94.589844-94.59375 0-44.835937 31.847656-83.824218 75.722656-92.703125 3.097656-.628906 5.46875-3.128906 5.933594-6.253906 4.472656-30.25 19.707031-58.027344 42.902344-78.21875 23.421875-20.382813 53.445312-31.609375 84.535156-31.609375 43.351562 0 83.542969 21.621094 107.511719 57.839844 1.695312 2.566406 4.789062 3.832031 7.800781 3.199218 6.582031-1.386718 13.347656-2.089843 20.109375-2.089843 53.554687 0 97.121094 43.570312 97.121094 97.121093 0 3.195313-.160157 6.441407-.476563 9.644532-.289062 2.925781 1.160156 5.75 3.707032 7.222656 21.539062 12.476562 34.921874 35.667969 34.921874 60.523438 0 38.550781-31.367187 69.917968-69.917968 69.917968h-43.425782c-4.140624 0-7.5 3.355469-7.5 7.5 0 4.140625 3.359376 7.5 7.5 7.5h43.425782c46.824218 0 84.917968-38.097656 84.917968-84.917968 0-28.59375-14.570312-55.363282-38.335937-70.988282zm0 0" data-original="#000000" class="active-path" data-old_color="#6f42c1" fill="#6f42c1"/><path d="m445.828125 453.734375h-114.480469c-1.769531-3.238281-5.207031-5.4375-9.152344-5.4375h-34.949218v-28.179687c0-3.941407-2.199219-7.378907-5.4375-9.148438v-40.707031c60.460937-12.277344 106.105468-65.847657 106.105468-129.875 0-73.074219-59.449218-132.519531-132.519531-132.519531-73.070312 0-132.519531 59.445312-132.519531 132.519531 0 64.027343 45.648438 117.597656 106.109375 129.875v40.707031c-3.242187 1.769531-5.441406 5.207031-5.441406 9.148438v28.179687h-34.949219c-3.945312 0-7.382812 2.199219-9.152344 5.4375h-114.480468c-8.023438 0-14.550782 6.527344-14.550782 14.550781v23.726563c0 8.019531 6.527344 14.546875 14.550782 14.546875h114.480468c1.769532 3.242187 5.207032 5.441406 9.148438 5.441406h133.605468c3.945313 0 7.382813-2.203125 9.152344-5.441406h114.480469c8.019531 0 14.546875-6.523438 14.546875-14.546875v-23.726563c.003906-8.023437-6.523438-14.550781-14.546875-14.550781zm-267.65625 37.824219h-112.757813v-22.820313h112.761719v22.820313zm-40.296875-251.171875c0-64.800781 52.71875-117.519531 117.519531-117.519531s117.519531 52.71875 117.519531 117.519531-52.71875 117.519531-117.519531 117.519531-117.519531-52.71875-117.519531-117.519531zm128.933594 132.03125v37.28125h-22.824219v-37.28125c3.761719.320312 7.566406.488281 11.410156.488281s7.652344-.167969 11.414063-.488281zm50.808594 124.582031h-124.445313v-33.703125h34.023437c6.257813 0 11.347657-5.09375 11.347657-11.351563v-27.246093h33.703125v27.246093c0 6.257813 5.09375 11.351563 11.351562 11.351563h34.019532zm127.761718-5.441406h-112.761718v-22.820313h112.761718zm0 0" data-original="#000000" class="active-path" data-old_color="#6f42c1" fill="#6f42c1"/></g> </svg>
