<?xml version="1.0"?>
<svg xmlns="http://www.w3.org/2000/svg" xmlns:xlink="http://www.w3.org/1999/xlink" version="1.1" id="Capa_1" x="0px" y="0px" viewBox="0 0 512.001 512.001" style="enable-background:new 0 0 512.001 512.001;" xml:space="preserve" width="512px" height="512px" class=""><g><g>
	<g>
		<path d="M374.75,0h-237.5c-19.181,0-34.786,15.605-34.786,34.786v294.238c0,4.142,3.358,7.5,7.5,7.5c4.142,0,7.5-3.358,7.5-7.5    V80.517h277.071v350.104H250.213V144.464c0-8.633-7.024-15.657-15.657-15.657h-78.934c-8.633,0-15.657,7.024-15.657,15.657v83.894    c0,4.142,3.358,7.5,7.5,7.5c4.142,0,7.5-3.358,7.5-7.5v-83.894c0-0.362,0.295-0.657,0.657-0.657h78.934    c0.362,0,0.657,0.295,0.657,0.657v286.157h-80.248V258.976c0-4.142-3.358-7.5-7.5-7.5c-4.142,0-7.5,3.358-7.5,7.5v171.646h-22.5    v-70.979c0-4.142-3.358-7.5-7.5-7.5c-4.142,0-7.5,3.358-7.5,7.5v117.572c0,19.181,15.605,34.786,34.786,34.786h19.774    c4.142,0,7.5-3.358,7.5-7.5c0-4.142-3.358-7.5-7.5-7.5H137.25c-10.91,0-19.786-8.876-19.786-19.786v-31.593h277.071v31.593    c0,10.91-8.876,19.786-19.786,19.786H187.643c-4.142,0-7.5,3.358-7.5,7.5c0,4.142,3.358,7.5,7.5,7.5H374.75    c19.181,0,34.786-15.605,34.786-34.786V34.786C409.536,15.605,393.932,0,374.75,0z M394.536,65.517H117.464v-30.73    c0-10.91,8.876-19.786,19.786-19.786h237.5c10.91,0,19.786,8.876,19.786,19.786V65.517z" data-original="#000000" class="active-path" data-old_color="#6f42c1" fill="#6f42c1"/>
	</g>
</g><g>
	<g>
		<path d="M266.794,32.758H190.86c-4.142,0-7.5,3.358-7.5,7.5c0,4.142,3.358,7.5,7.5,7.5h75.933c4.142,0,7.5-3.358,7.5-7.5    C274.294,36.116,270.937,32.758,266.794,32.758z" data-original="#000000" class="active-path" data-old_color="#6f42c1" fill="#6f42c1"/>
	</g>
</g><g>
	<g>
		<path d="M321.141,32c-4.142,0-7.5,3.358-7.5,7.5v1.518c0,4.142,3.358,7.5,7.5,7.5c4.142,0,7.5-3.358,7.5-7.5V39.5    C328.641,35.357,325.283,32,321.141,32z" data-original="#000000" class="active-path" data-old_color="#6f42c1" fill="#6f42c1"/>
	</g>
</g><g>
	<g>
		<path d="M300.279,32c-4.142,0-7.5,3.358-7.5,7.5v1.518c0,4.142,3.358,7.5,7.5,7.5c4.142,0,7.5-3.358,7.5-7.5V39.5    C307.779,35.357,304.421,32,300.279,32z" data-original="#000000" class="active-path" data-old_color="#6f42c1" fill="#6f42c1"/>
	</g>
</g><g>
	<g>
		<path d="M277.482,463.811h-42.963c-4.142,0-7.5,3.358-7.5,7.5c0,4.142,3.358,7.5,7.5,7.5h42.963c4.142,0,7.5-3.358,7.5-7.5    C284.982,467.169,281.623,463.811,277.482,463.811z" data-original="#000000" class="active-path" data-old_color="#6f42c1" fill="#6f42c1"/>
	</g>
</g><g>
	<g>
		<path d="M358.521,128.497H285.07c-8.633,0-15.657,7.024-15.657,15.657v73.451c0,8.633,7.024,15.657,15.657,15.657h73.451    c8.633,0,15.657-7.024,15.657-15.657v-73.451C374.177,135.521,367.154,128.497,358.521,128.497z M359.177,217.605    c0,0.362-0.295,0.657-0.657,0.657H285.07c-0.362,0-0.657-0.295-0.657-0.657v-73.451c0-0.362,0.295-0.657,0.657-0.657h73.451    c0.362,0,0.657,0.295,0.657,0.657V217.605z" data-original="#000000" class="active-path" data-old_color="#6f42c1" fill="#6f42c1"/>
	</g>
</g><g>
	<g>
		<path d="M358.568,248.962h-73.547c-8.607,0-15.609,7.002-15.609,15.609v19.517c0,8.607,7.002,15.609,15.609,15.609h73.547    c8.607,0,15.609-7.002,15.609-15.609v-19.517C374.177,255.964,367.175,248.962,358.568,248.962z M359.177,284.088    c0,0.336-0.273,0.609-0.609,0.609h-73.547c-0.336,0-0.609-0.273-0.609-0.609v-19.517c0-0.336,0.273-0.609,0.609-0.609h73.547    c0.336,0,0.609,0.273,0.609,0.609V284.088z" data-original="#000000" class="active-path" data-old_color="#6f42c1" fill="#6f42c1"/>
	</g>
</g><g>
	<g>
		<path d="M366.678,316.591h-89.766c-4.142,0-7.5,3.358-7.5,7.5c0,4.142,3.358,7.5,7.5,7.5h89.766c4.142,0,7.5-3.358,7.5-7.5    C374.178,319.949,370.82,316.591,366.678,316.591z" data-original="#000000" class="active-path" data-old_color="#6f42c1" fill="#6f42c1"/>
	</g>
</g><g>
	<g>
		<path d="M366.678,343.936h-89.766c-4.142,0-7.5,3.358-7.5,7.5c0,4.142,3.358,7.5,7.5,7.5h89.766c4.142,0,7.5-3.358,7.5-7.5    C374.178,347.294,370.82,343.936,366.678,343.936z" data-original="#000000" class="active-path" data-old_color="#6f42c1" fill="#6f42c1"/>
	</g>
</g><g>
	<g>
		<path d="M366.678,371.279h-89.766c-4.142,0-7.5,3.358-7.5,7.5c0,4.142,3.358,7.5,7.5,7.5h89.766c4.142,0,7.5-3.358,7.5-7.5    C374.178,374.637,370.82,371.279,366.678,371.279z" data-original="#000000" class="active-path" data-old_color="#6f42c1" fill="#6f42c1"/>
	</g>
</g><g>
	<g>
		<path d="M366.678,398.624h-89.766c-4.142,0-7.5,3.358-7.5,7.5c0,4.142,3.358,7.5,7.5,7.5h89.766c4.142,0,7.5-3.358,7.5-7.5    C374.178,401.982,370.82,398.624,366.678,398.624z" data-original="#000000" class="active-path" data-old_color="#6f42c1" fill="#6f42c1"/>
	</g>
</g><g>
	<g>
		<path d="M345.784,196.473l-17.869-37.621c-1.243-2.615-3.879-4.282-6.775-4.282s-5.532,1.667-6.774,4.282l-17.869,37.621    c-1.777,3.741-0.185,8.215,3.557,9.992c1.039,0.494,2.134,0.728,3.212,0.728c2.806,0,5.497-1.582,6.78-4.284l1.605-3.38h18.978    l1.605,3.38c1.777,3.741,6.249,5.334,9.993,3.557C345.969,204.689,347.561,200.215,345.784,196.473z M318.776,184.528l2.365-4.978    l2.364,4.978H318.776z" data-original="#000000" class="active-path" data-old_color="#6f42c1" fill="#6f42c1"/>
	</g>
</g></g> </svg>
