<?xml version="1.0"?>
<svg xmlns="http://www.w3.org/2000/svg" xmlns:xlink="http://www.w3.org/1999/xlink" version="1.1" id="Capa_1" x="0px" y="0px" viewBox="0 0 512 512" style="enable-background:new 0 0 512 512;" xml:space="preserve" width="512px" height="512px" class=""><g><g>
	<g>
		<path d="M116.971,363.595c-4.149,0-7.51,3.362-7.51,7.51v21.689c0,4.149,3.362,7.51,7.51,7.51c4.149,0,7.51-3.362,7.51-7.51    v-21.689C124.482,366.956,121.12,363.595,116.971,363.595z" data-original="#000000" class="active-path" data-old_color="#6f42c1" fill="#6f42c1"/>
	</g>
</g><g>
	<g>
		<path d="M162.217,383.459l-6.918-20.554c-1.323-3.931-5.583-6.043-9.514-4.722c-3.931,1.323-6.045,5.583-4.722,9.514l6.918,20.554    c1.322,3.924,5.576,6.046,9.514,4.722C161.426,391.65,163.54,387.39,162.217,383.459z" data-original="#000000" class="active-path" data-old_color="#6f42c1" fill="#6f42c1"/>
	</g>
</g><g>
	<g>
		<path d="M195.649,361.115l-13.531-16.949c-2.589-3.239-7.314-3.773-10.555-1.184c-3.24,2.588-3.771,7.314-1.184,10.555    l13.531,16.949c2.589,3.24,7.316,3.77,10.555,1.184C197.706,369.083,198.236,364.357,195.649,361.115z" data-original="#000000" class="active-path" data-old_color="#6f42c1" fill="#6f42c1"/>
	</g>
</g><g>
	<g>
		<path d="M60.799,344.001c-3.111-2.743-7.858-2.442-10.6,0.667l-14.342,16.268c-2.743,3.111-2.443,7.858,0.667,10.6    c3.125,2.755,7.869,2.43,10.6-0.667l14.342-16.268C64.21,351.489,63.91,346.744,60.799,344.001z" data-original="#000000" class="active-path" data-old_color="#6f42c1" fill="#6f42c1"/>
	</g>
</g><g>
	<g>
		<path d="M86.85,358.723c-3.86-1.511-8.22,0.391-9.733,4.253l-7.913,20.194c-1.513,3.861,0.392,8.219,4.253,9.733    c3.863,1.512,8.219-0.391,9.733-4.253l7.913-20.194C92.616,364.594,90.712,360.236,86.85,358.723z" data-original="#000000" class="active-path" data-old_color="#6f42c1" fill="#6f42c1"/>
	</g>
</g><g>
	<g>
		<path d="M164.314,115.169c0-0.08,0.01-0.16,0.01-0.23v-15.04c37.221-1.792,66.951-32.635,66.951-70.286    c0-16.322-13.288-29.61-29.61-29.61H29.61C13.278,0.002,0,13.29,0,29.612c0,37.661,29.731,68.503,66.961,70.286v57.739    c0,0.01,0,0.01,0,0.02c0,48.129-38.923,51.366-38.923,105.254c0,115.868,175.069,115.831,175.199-0.02    c0-53.667-38.923-57.398-38.923-104.723v-0.531V115.169z M188.217,262.981c-0.097,95.699-145.158,96-145.158-0.07    c0-45.642,35.076-49.793,38.643-97.763h67.833C152.905,212.656,188.217,217.333,188.217,262.981z M87.68,118.193h-5.698V99.978    h67.322v14.8c-0.01,0.08-0.01,0.16-0.01,0.24v3.174h-31.573c-4.146,0-7.51,3.355-7.51,7.51c0,4.146,3.365,7.51,7.51,7.51h31.573    v16.913H81.982v-16.913h5.698c4.146,0,7.51-3.365,7.51-7.51C95.19,121.548,91.825,118.193,87.68,118.193z M160.899,84.958    c-0.11,0-91.659,0.053-93.938-0.11c-28.939-1.762-51.941-25.855-51.941-55.235c0-8.041,6.539-14.59,14.59-14.59h172.055    c8.041,0,14.59,6.549,14.59,14.59C216.255,60.325,191.219,84.958,160.899,84.958z" data-original="#000000" class="active-path" data-old_color="#6f42c1" fill="#6f42c1"/>
	</g>
</g><g>
	<g>
		<path d="M389.586,84.68c-4.149,0-7.51,3.362-7.51,7.51c0,4.149,3.363,7.51,7.51,7.51c19.66,0,35.654,15.995,35.654,35.654    c0,4.149,3.362,7.51,7.51,7.51c4.149,0,7.51-3.362,7.51-7.51C440.26,107.412,417.528,84.68,389.586,84.68z" data-original="#000000" class="active-path" data-old_color="#6f42c1" fill="#6f42c1"/>
	</g>
</g><g>
	<g>
		<path d="M389.586,14.175c-4.149,0-7.51,3.362-7.51,7.51c0,4.149,3.363,7.51,7.51,7.51c58.537,0,106.16,47.623,106.16,106.16    c0,4.149,3.362,7.51,7.51,7.51s7.51-3.362,7.51-7.51C510.766,68.536,456.405,14.175,389.586,14.175z" data-original="#000000" class="active-path" data-old_color="#6f42c1" fill="#6f42c1"/>
	</g>
</g><g>
	<g>
		<path d="M389.586,48.101c-4.149,0-7.51,3.362-7.51,7.51c0,4.149,3.363,7.51,7.51,7.51c39.829,0,72.234,32.403,72.234,72.234    c0,4.149,3.362,7.51,7.51,7.51c4.149,0,7.51-3.362,7.51-7.51C476.84,87.243,437.698,48.101,389.586,48.101z" data-original="#000000" class="active-path" data-old_color="#6f42c1" fill="#6f42c1"/>
	</g>
</g><g>
	<g>
		<path d="M306.469,167.87h-29.599c-4.424,0-8.011,3.587-8.011,8.011s3.587,8.011,8.011,8.011h29.599    c4.424,0,8.011-3.587,8.011-8.011S310.893,167.87,306.469,167.87z" data-original="#000000" class="active-path" data-old_color="#6f42c1" fill="#6f42c1"/>
	</g>
</g><g>
	<g>
		<circle cx="331.532" cy="175.88" r="5.967" data-original="#000000" class="active-path" data-old_color="#6f42c1" fill="#6f42c1"/>
	</g>
</g><g>
	<g>
		<path d="M329.027,469.141h-43.684c-4.149,0-7.51,3.362-7.51,7.51c0,4.149,3.362,7.51,7.51,7.51h43.684    c4.149,0,7.51-3.362,7.51-7.51C336.537,472.502,333.174,469.141,329.027,469.141z" data-original="#000000" class="active-path" data-old_color="#6f42c1" fill="#6f42c1"/>
	</g>
</g><g>
	<g>
		<g>
			<path d="M477.656,432.094c0.002-0.001,0.005-0.002,0.007-0.003c0.002-0.001,0.005-0.002,0.007-0.003     C477.665,432.09,477.661,432.092,477.656,432.094z" data-original="#000000" class="active-path" data-old_color="#6f42c1" fill="#6f42c1"/>
			<path d="M510.59,459.74l-7.97-18.278c-1.379-3.164-3.58-5.806-6.347-7.742c1.801-5.116,1.755-10.895-0.578-16.249l-22.34-51.24     c-2.363-5.427-6.719-9.613-12.247-11.786c-5.538-2.173-11.576-2.063-17.003,0.3l-35.599,15.521V177.754     c0-19.517-15.872-35.388-35.388-35.388h-131.87c-19.507,0-35.388,15.872-35.388,35.388v298.457     c0,19.507,15.882,35.388,35.388,35.388h131.87c16.127,0,29.756-10.848,34.006-25.621l6.913,15.859     c2.774,6.361,9.008,10.161,15.541,10.161c2.255,0,4.546-0.454,6.741-1.411l65.517-28.565     C510.393,478.292,514.32,468.297,510.59,459.74z M220.881,212.041h14.454c4.149,0,7.51-3.362,7.51-7.51     c0-4.149-3.362-7.51-7.51-7.51h-14.454v-19.266c0-11.225,9.142-20.368,20.368-20.368h131.87c11.235,0,20.368,9.143,20.368,20.368     v19.266H265.376c-4.149,0-7.51,3.362-7.51,7.51c0,4.149,3.362,7.51,7.51,7.51h128.111v126.592l-10.544-24.183     c-3.555-8.171-11.195-13.478-19.507-14.42c-6.088-12.827-16.482-23.492-29.741-29.731c-3.755-1.772-8.221-0.16-9.994,3.595     c-1.762,3.745-0.16,8.221,3.595,9.994c9.022,4.246,16.302,11.195,21.039,19.607c-4.005,2.503-7.23,6.198-9.163,10.584     c-2.674,6.088-2.694,13.068-0.05,19.126l8.121,18.645c-14.546,23.207-39.755,22.016-40.055,22.11     c-26.076,0-47.284-21.209-47.284-47.284c0-16.613,8.482-31.703,22.681-40.375c3.545-2.163,4.666-6.789,2.503-10.324     c-2.163-3.545-6.789-4.666-10.324-2.503c-18.706,11.426-29.881,31.313-29.881,53.203c0,34.357,27.948,62.305,62.305,62.305     c0.791-0.21,27.066,1.536,46.964-21.299l11.856,27.207l-2.313-0.631c-12.367-3.485-25.425,3.675-29.11,16.002     c-1.802,6.008-1.102,12.397,1.963,17.995c3.104,5.668,8.411,9.924,14.58,11.676l7,1.993H220.881V212.041z M393.486,476.211     c0,11.225-9.132,20.368-20.368,20.368h-131.87c-11.202,0-20.368-9.165-20.368-20.368v-19.266h172.185     c0.277,0.634,0.421,1.319,0.421,2.011V476.211z M409.689,454.972l-1.182-2.714l-3.995-9.162     c-2.944-6.755-9.611-7.109-11.025-7.761l-37.972-10.815c-2.063-0.591-3.855-2.033-4.917-3.955     c-0.991-1.812-1.232-3.845-0.671-5.708c0.991-3.305,4.066-5.457,7.36-5.457c0.691,0,1.392,0.09,2.083,0.29     c0.03,0.01,0.07,0.02,0.1,0.03l10.044,2.704c4.576,1.242,9.333-0.22,12.417-3.805c3.094-3.585,3.835-8.512,1.943-12.847     c-0.05-0.13-0.1-0.26-0.14-0.381c-0.13-0.35-0.28-0.691-0.451-1.021c-0.06-0.13-0.13-0.26-0.18-0.37l-18.635-42.738     l-10.034-23.021l-0.621-1.432c-0.881-2.013-0.871-4.236,0.03-6.269c0.05-0.11,0.1-0.22,0.17-0.33     c0.901-1.853,2.463-3.244,4.436-3.915c3.815-1.312,8.121,0.691,9.813,4.566l1.142,2.614l24.083,55.245l2.503,5.748     c1.772,4.055,6.489,5.908,10.544,4.136l1.973-0.861l42.007-18.305c1.502-0.661,3.184-0.691,4.737-0.08     c1.552,0.611,2.764,1.772,3.415,3.274l22.34,51.25c1.372,3.124-0.07,6.789-3.204,8.151c-0.001,0-0.003,0.001-0.006,0.002     c-0.001,0-0.002,0.001-0.004,0.002c-0.007,0.003-0.019,0.008-0.033,0.015c0.006-0.003,0.011-0.005,0.016-0.007     c-0.012,0.005-0.023,0.01-0.034,0.015c-0.012,0.005-0.027,0.012-0.044,0.019c-0.012,0.006-0.022,0.01-0.033,0.014     c-0.015,0.006-0.03,0.013-0.048,0.021c0.004-0.001,0.007-0.003,0.011-0.005c-0.008,0.003-0.015,0.006-0.021,0.009     c-0.007,0.003-0.013,0.006-0.02,0.009c0.004-0.002,0.008-0.003,0.012-0.005c-0.042,0.019-0.068,0.03-0.081,0.035     c0.005-0.002,0.012-0.005,0.02-0.009c-1.561,0.681-11.202,4.885-59.734,26.048C414.637,459.536,411.003,458.005,409.689,454.972z      M495.434,467.336l-65.518,28.565c-0.227,0.099-0.461,0.103-0.692,0.013c-0.231-0.091-0.4-0.253-0.5-0.481l-7.969-18.278     c-0.55-1.262,0.052-2.792,1.314-3.343c0.128-0.055,2.076-0.9,2.179-0.946c62.705-26.692,60.135-27.176,62.283-26.338     c0.37,0.146,1.043,0.513,1.403,1.337l7.969,18.277C496.102,466.6,495.893,467.135,495.434,467.336z" data-original="#000000" class="active-path" data-old_color="#6f42c1" fill="#6f42c1"/>
		</g>
	</g>
</g><g>
	<g>
		<path d="M477.774,432.042c0.006-0.003,0.011-0.005,0.017-0.008l0.002-0.001C477.789,432.036,477.782,432.039,477.774,432.042z" data-original="#000000" class="active-path" data-old_color="#6f42c1" fill="#6f42c1"/>
	</g>
</g><g>
	<g>
		<path d="M307.184,246.753c-4.149,0-7.51,3.362-7.51,7.51v68.01c0,4.149,3.363,7.51,7.51,7.51c4.149,0,7.51-3.362,7.51-7.51v-68.01    C314.694,250.115,311.332,246.753,307.184,246.753z" data-original="#000000" class="active-path" data-old_color="#6f42c1" fill="#6f42c1"/>
	</g>
</g></g> </svg>
