<?xml version="1.0"?>
<svg xmlns="http://www.w3.org/2000/svg" height="512px" viewBox="0 0 512 512" width="512px"><path d="m485.515625 141.242188c4.878906 0 8.828125-3.953126 8.828125-8.828126v-8.828124h8.828125c4.875 0 8.828125-3.953126 8.828125-8.828126s-3.953125-8.828124-8.828125-8.828124h-8.828125v-8.828126c0-4.875-3.949219-8.824218-8.828125-8.824218-4.875 0-8.824219 3.949218-8.824219 8.824218v8.828126h-8.828125c-4.875 0-8.828125 3.953124-8.828125 8.828124s3.953125 8.828126 8.828125 8.828126h8.828125v8.828124c0 4.875 3.949219 8.828126 8.824219 8.828126zm0 0" fill="#914aba"/><path d="m17.65625 35.308594v8.828125c0 4.875 3.949219 8.828125 8.828125 8.828125 4.875 0 8.824219-3.953125 8.824219-8.828125v-8.828125h8.828125c4.875 0 8.828125-3.949219 8.828125-8.824219 0-4.878906-3.953125-8.828125-8.828125-8.828125h-8.828125v-8.828125c0-4.875-3.949219-8.828125-8.824219-8.828125-4.878906 0-8.828125 3.953125-8.828125 8.828125v8.828125h-8.828125c-4.875 0-8.828125 3.949219-8.828125 8.828125 0 4.875 3.953125 8.824219 8.828125 8.824219zm0 0" fill="#914aba"/><path d="m61.792969 317.792969h8.828125v8.828125c0 4.875 3.953125 8.828125 8.828125 8.828125s8.828125-3.953125 8.828125-8.828125v-8.828125h8.824218c4.878907 0 8.828126-3.953125 8.828126-8.828125s-3.949219-8.828125-8.828126-8.828125h-8.824218v-8.828125c0-4.875-3.953125-8.824219-8.828125-8.824219s-8.828125 3.949219-8.828125 8.824219v8.828125h-8.828125c-4.875 0-8.828125 3.953125-8.828125 8.828125s3.953125 8.828125 8.828125 8.828125zm0 0" fill="#914aba"/><path d="m378.878906 121.730469c-1.78125-3.996094-1.78125-8.5625 0-12.558594-32.441406-25.601563-72.730468-39.21875-114.050781-38.550781-64.167969 0-108.816406 30.4375-120.460937 79.449218h.527343c.308594-.441406.679688-.839843 1-1.273437.765625-1.023437 1.535157-2.046875 2.375-3.027344.714844-.882812 1.492188-1.640625 2.257813-2.453125.769531-.8125 1.765625-1.855468 2.738281-2.738281.96875-.882813 1.703125-1.507813 2.578125-2.242187 1.003906-.882813 2.039062-1.675782 3.113281-2.46875.9375-.699219 1.90625-1.371094 2.886719-2.023438 1.144531-.769531 2.320312-1.511719 3.53125-2.222656 1.042969-.609375 2.101562-1.210938 3.1875-1.765625 1.261719-.679688 2.578125-1.335938 3.910156-1.96875 1.140625-.539063 2.285156-1.070313 3.480469-1.574219 1.394531-.597656 2.851563-1.164062 4.324219-1.710938 1.226562-.460937 2.460937-.882812 3.742187-1.351562 1.554688-.519531 3.160157-.996094 4.785157-1.464844 1.316406-.378906 2.648437-.769531 4-1.121094 1.703124-.441406 3.476562-.828124 5.25-1.21875 1.394531-.300781 2.773437-.625 4.21875-.882812 1.890624-.359375 3.867187-.660156 5.835937-.96875 1.441406-.222656 2.851563-.46875 4.335937-.671875 2.109376-.28125 4.324219-.496094 6.53125-.722656 1.449219-.152344 2.859376-.328125 4.351563-.453125 2.507813-.210938 5.128906-.34375 7.742187-.476563 1.289063-.070312 2.515626-.175781 3.832032-.226562 3.953125-.195313 8.050781-.285157 12.269531-.285157 23.480469 0 49.699219 13.664063 66.726563 24.460938-2.34375-6.800781-6.144532-13.003906-11.140626-18.183594-.722656-.652344-17.007812-15.105468-55.585937-15.105468-4.875 0-8.828125-3.949219-8.828125-8.828126 0-4.875 3.953125-8.824218 8.828125-8.824218 37.828125 0 58.121094 12.417968 65.15625 17.8125 27.140625 2.511718 52.632813 14.140625 72.316406 32.996094-1.386719-5.949219-3.316406-11.757813-5.765625-17.355469zm0 0" fill="#914aba"/><path d="m379.585938 282.484375c0-11.707031 9.585937-17.761719 18.855468-23.625 12.429688-7.863281 25.28125-15.996094 25.28125-38.167969 0-9.164062-3.6875-26.484375-17.652344-26.484375-2.5625 0-5.722656 2.773438-8.828124 7.460938v14.609375c0 17.0625-13.832032 30.894531-30.898438 30.894531h-57.273438c-10.332031 0-20.140624-4.539063-26.824218-12.417969-3.320313-3.535156-8.011719-5.445312-12.855469-5.238281h-6.902344c-5.382812.113281-10.445312 2.585937-13.839843 6.761719-5.871094 6.910156-14.480469 10.894531-23.546876 10.894531h-57.273437c-19.546875-.023437-35.390625-15.867187-35.414063-35.414063v-10.089843c-3.109374-4.6875-6.269531-7.460938-8.828124-7.460938-13.964844 0-17.65625 17.320313-17.65625 26.484375 0 22.171875 12.855468 30.304688 25.285156 38.167969 9.265625 5.863281 18.855468 11.917969 18.855468 23.625v26.480469c3.679688 18.902344 15.046876 35.421875 31.378907 45.621094 5.785156 3.859374 10.648437 7.617187 15.34375 11.253906l.257812.203125 2.195313 1.695312c2.269531 1.765625 4.484375 3.425781 6.71875 5.015625.882812.636719 1.765625 1.253906 2.71875 1.863282l.292968.191406c9.289063 6.195312 19.84375 10.230468 30.894532 11.8125l.265625.054687c5.554687.859375 11.15625 1.382813 16.773437 1.570313 2.550782.105468 5.179688.167968 7.988282.167968 2.808593 0 5.4375-.0625 7.988281-.167968 18.183593.457031 36.03125-4.976563 50.875-15.492188 2.230469-1.589844 4.414062-3.265625 6.714843-5.015625l2.199219-1.695312.257813-.203125c4.695312-3.636719 9.558594-7.394532 15.339844-11.253906 16.308593-10.210938 27.648437-26.730469 31.3125-45.621094zm-114.757813 70.617187c-19.5 0-35.3125-15.808593-35.3125-35.308593s15.8125-35.308594 35.3125-35.308594 35.308594 15.808594 35.308594 35.308594-15.808594 35.308593-35.308594 35.308593zm0 0" fill="#914aba"/><path d="m361.128906 142.769531c-.742187-.53125-1.492187-1.121093-2.234375-1.625-1.316406-.882812-2.648437-1.667969-3.917969-2.472656-1.273437-.800781-2.648437-1.605469-3.894531-2.320313-1.042969-.59375-2.066406-1.121093-3.097656-1.652343-1.609375-.828125-3.195313-1.613281-4.75-2.320313-.734375-.328125-1.464844-.664062-2.179687-.972656-2.050782-.882812-4.054688-1.667969-5.984376-2.355469l-.636718-.238281c-2.304688-.804688-4.519532-1.492188-6.605469-2.066406 3.417969 7.394531 5.722656 15.253906 6.84375 23.324218h35.523437c-2.890624-2.59375-5.917968-5.03125-9.066406-7.300781zm0 0" fill="#914aba"/><path d="m123.585938 131.734375c.261718 5.945313 1.148437 11.84375 2.648437 17.601563 11.917969-59.375 63.671875-96.371094 138.59375-96.371094 47.433594-1.171875 93.601563 15.382812 129.484375 46.433594 1.339844-.007813 2.675781.144531 3.980469.460937 3.042969.800781 6.042969 1.777344 8.976562 2.921875-14.078125-29.125-52.171875-76.296875-151.269531-76.296875-48.640625 0-84.746094 12.355469-107.253906 36.675781-16.792969 18.832032-25.789063 43.351563-25.160156 68.574219zm0 0" fill="#914aba"/><path d="m170.152344 150.070312h127.585937c-15.152343-9.941406-32.519531-16.003906-50.566406-17.65625-39.433594 0-62.957031 7.273438-77.019531 17.65625zm0 0" fill="#914aba"/><path d="m150.070312 194.207031v17.550781c.007813 9.804688 7.953126 17.75 17.757813 17.757813h57.273437c3.890626 0 7.585938-1.710937 10.101563-4.675781 6.746094-8.125 16.726563-12.871094 27.285156-12.976563h6.902344c10.023437-.210937 19.628906 3.984375 26.289063 11.476563 3.339843 3.921875 8.238281 6.183594 13.390624 6.175781h57.273438c7.3125 0 13.242188-5.925781 13.242188-13.238281v-48.554688h-224.308594c-3.6875 8.332032-5.46875 17.378906-5.207032 26.484375zm0 0" fill="#914aba"/><path d="m282.484375 317.792969c0 9.75-7.90625 17.65625-17.65625 17.65625s-17.65625-7.90625-17.65625-17.65625 7.90625-17.65625 17.65625-17.65625 17.65625 7.90625 17.65625 17.65625zm0 0" fill="#914aba"/><path d="m350.703125 426.496094 11.898437 11.898437c4.707032-5.21875 8.609376-11.113281 11.582032-17.488281-4.960938-3.328125-9.734375-6.925781-14.300782-10.777344-1.988281 5.992188-5.105468 11.546875-9.179687 16.367188zm0 0" fill="#914aba"/><path d="m191.621094 438.792969-11.601563 11.597656c8.109375 6.074219 16.957031 11.085937 26.335938 14.910156l5.367187-16.089843c-7.007812-2.828126-13.65625-6.46875-19.8125-10.851563-.121094.132813-.167968.308594-.289062.433594zm0 0" fill="#914aba"/><path d="m349.632812 450.390625-11.597656-11.597656c-.125-.125-.167968-.300781-.292968-.433594-6.152344 4.382813-12.800782 8.023437-19.808594 10.851563l5.367187 16.089843c9.378907-3.824219 18.226563-8.835937 26.332031-14.910156zm0 0" fill="#914aba"/><path d="m26.484375 450.207031c-4.878906 0-8.828125 3.953125-8.828125 8.828125v44.136719c0 4.875 3.949219 8.828125 8.828125 8.828125h476.6875c4.875 0 8.828125-3.953125 8.828125-8.828125v-44.136719c0-4.875-3.953125-8.828125-8.828125-8.828125h-26.480469c-4.414062 0-8.75-.148437-13.039062-.398437-1.511719-.085938-2.957032-.246094-4.414063-.359375-2.703125-.222657-5.394531-.441407-8.042969-.761719-1.765624-.203125-3.40625-.457031-5.101562-.707031-2.277344-.332031-4.554688-.679688-6.804688-1.082031-1.765624-.328126-3.53125-.679688-5.296874-1.050782-2.058594-.433594-4.105469-.882812-6.128907-1.386718-1.765625-.441407-3.507812-.902344-5.226562-1.378907-1.878907-.527343-3.75-1.074219-5.605469-1.660156-1.851562-.582031-3.484375-1.128906-5.1875-1.765625-1.707031-.632812-3.398438-1.214844-5.085938-1.871094-1.6875-.652344-3.53125-1.375-5.191406-2.101562-1.535156-.652344-3.070312-1.320313-4.589844-2.019532-1.765624-.820312-3.53125-1.652343-5.199218-2.507812-.777344-.398438-1.597656-.742188-2.375-1.148438-18.511719 38.367188-67.929688 64.335938-124.574219 64.335938-56.648437 0-106.0625-25.96875-124.601563-64.289062-.777343.40625-1.589843.75-2.375 1.136718-1.703124.882813-3.433593 1.695313-5.207031 2.515625-1.519531.695313-3.046875 1.371094-4.582031 2.023438-1.703125.722656-3.433594 1.421875-5.191406 2.101562-1.6875.652344-3.382813 1.269531-5.101563 1.871094-1.722656.597656-3.417969 1.164063-5.164062 1.765625-1.75.597656-3.742188 1.136719-5.640625 1.667969-1.703125.476562-3.425782.882812-5.183594 1.359375-2.042969.503906-4.101562.972656-6.179688 1.402344-1.765624.363281-3.441406.714843-5.207031 1.042968-2.269531.40625-4.554687.757813-6.859375 1.085938-1.675781.246094-3.335937.503906-5.058594.707031-2.648437.316406-5.359374.546875-8.066406.757813-1.476562.113281-2.914062.273437-4.414062.363281-4.28125.203125-8.617188.351562-13.03125.351562zm0 0" fill="#914aba"/><path d="m167.054688 438.394531 11.898437-11.898437c-4.074219-4.820313-7.191406-10.375-9.179687-16.367188-4.566407 3.855469-9.339844 7.453125-14.300782 10.777344 2.96875 6.375 6.875 12.269531 11.582032 17.488281zm0 0" fill="#914aba"/><path d="m344.277344 397.242188c-.003906-.753907-.050782-1.503907-.144532-2.25-.105468-.117188-.191406-.25-.296874-.363282-2.808594-3.117187-5.394532-6.179687-7.671876-9.101562-.246093.183594-.523437.351562-.769531.539062-1.277343.933594-2.585937 1.84375-3.917969 2.746094-.699218.476562-1.402343.933594-2.121093 1.402344-1.277344.820312-2.585938 1.613281-3.925781 2.402344-.714844.414062-1.429688.828124-2.171876 1.234374-1.605468.882813-3.285156 1.765626-5.023437 2.523438-.785156.371094-1.605469.726562-2.417969 1.070312-1.871094.800782-3.796875 1.578126-5.84375 2.285157-.699218.238281-1.449218.449219-2.164062.679687-1.878906.601563-3.855469 1.164063-5.914063 1.675782-.707031.1875-1.386719.371093-2.117187.550781-2.648438.589843-5.402344 1.101562-8.316406 1.550781l-2.429688.363281c-3.113281.421875-6.40625.769531-9.910156 1.015625-.664063.050782-1.371094.078125-2.039063.113282-3.859375.238281-7.839843.390624-12.253906.390624s-8.394531-.152343-12.253906-.390624c-.671875 0-1.375-.0625-2.039063-.113282-3.53125-.246094-6.796875-.59375-9.914062-1.015625l-2.425782-.363281c-2.90625-.449219-5.703124-.960938-8.308593-1.550781-.742188-.167969-1.429688-.371094-2.144531-.550781-2.046876-.519532-4.007813-1.066407-5.878907-1.667969-.730469-.238281-1.507812-.457031-2.222656-.703125-2.023437-.699219-3.929687-1.46875-5.785156-2.261719-.828125-.351563-1.65625-.714844-2.453125-1.085937-1.722656-.804688-3.382813-1.640626-4.976563-2.496094-.769531-.425782-1.511719-.882813-2.253906-1.289063-1.277344-.742187-2.523437-1.503906-3.742187-2.289062-.820313-.527344-1.632813-1.058594-2.425782-1.597657-1.210937-.828124-2.402344-1.660156-3.578125-2.515624-.308593-.21875-.632812-.421876-.933593-.652344-2.285157 2.949218-4.890626 6.027344-7.714844 9.152344-.089844.097656-.167969.214843-.257813.3125-.089843.746093-.136719 1.496093-.140625 2.25 0 23.921874 36.378906 44.136718 79.449219 44.136718s79.449219-20.214844 79.449219-44.136718zm0 0" fill="#914aba"/><path d="m273.65625 476.414062c11.144531-.605468 22.191406-2.410156 32.953125-5.382812l-5.457031-16.367188c-9.015625 2.238282-18.222656 3.609376-27.496094 4.097657zm0 0" fill="#914aba"/><path d="m256 476.414062v-17.652343c-9.273438-.488281-18.484375-1.859375-27.496094-4.097657l-5.457031 16.367188c10.757813 2.972656 21.808594 4.777344 32.953125 5.382812zm0 0" fill="#914aba"/></svg>
